<?xml version="1.0" encoding="UTF-8" standalone="no"?>
<!-- Created with Inkscape (http://www.inkscape.org/) -->

<svg
   xmlns:dc="http://purl.org/dc/elements/1.1/"
   xmlns:cc="http://creativecommons.org/ns#"
   xmlns:rdf="http://www.w3.org/1999/02/22-rdf-syntax-ns#"
   xmlns:svg="http://www.w3.org/2000/svg"
   xmlns="http://www.w3.org/2000/svg"
   xmlns:sodipodi="http://sodipodi.sourceforge.net/DTD/sodipodi-0.dtd"
   xmlns:inkscape="http://www.inkscape.org/namespaces/inkscape"
   width="744.09448819"
   height="1052.3622047"
   id="svg2"
   version="1.1"
   inkscape:version="0.48.2 r9819"
   sodipodi:docname="playbutton.svg"
   inkscape:export-filename="C:\Users\pbarr\git\Repository\Calculate-android\assets\data\originals\buttons.png"
   inkscape:export-xdpi="90"
   inkscape:export-ydpi="90">
  <defs
     id="defs4">
    <filter
       inkscape:collect="always"
       id="filter3829"
       x="-0.044502075"
       width="1.0890041"
       y="-0.12767857"
       height="1.2553571">
      <feGaussianBlur
         inkscape:collect="always"
         stdDeviation="9.0282383"
         id="feGaussianBlur3831" />
    </filter>
    <filter
       inkscape:collect="always"
       id="filter3873"
       x="-0.032465516"
       width="1.064931"
       y="-0.11223412"
       height="1.2244682">
      <feGaussianBlur
         inkscape:collect="always"
         stdDeviation="3.5591162"
         id="feGaussianBlur3875" />
    </filter>
    <filter
       color-interpolation-filters="sRGB"
       inkscape:collect="always"
       id="filter3873-1"
       x="-0.032465518"
       width="1.064931"
       y="-0.11223412"
       height="1.2244682">
      <feGaussianBlur
         inkscape:collect="always"
         stdDeviation="3.5591162"
         id="feGaussianBlur3875-7" />
    </filter>
    <filter
       color-interpolation-filters="sRGB"
       inkscape:collect="always"
       id="filter3829-4"
       x="-0.044502076"
       width="1.0890042"
       y="-0.12767857"
       height="1.2553571">
      <feGaussianBlur
         inkscape:collect="always"
         stdDeviation="9.0282383"
         id="feGaussianBlur3831-0" />
    </filter>
    <filter
       color-interpolation-filters="sRGB"
       inkscape:collect="always"
       id="filter3873-7"
       x="-0.032465518"
       width="1.064931"
       y="-0.11223412"
       height="1.2244682">
      <feGaussianBlur
         inkscape:collect="always"
         stdDeviation="3.5591162"
         id="feGaussianBlur3875-1" />
    </filter>
    <filter
       color-interpolation-filters="sRGB"
       inkscape:collect="always"
       id="filter3829-1"
       x="-0.044502076"
       width="1.0890042"
       y="-0.12767857"
       height="1.2553571">
      <feGaussianBlur
         inkscape:collect="always"
         stdDeviation="9.0282383"
         id="feGaussianBlur3831-5" />
    </filter>
  </defs>
  <sodipodi:namedview
     id="base"
     pagecolor="#ffffff"
     bordercolor="#666666"
     borderopacity="1.0"
     inkscape:pageopacity="0.0"
     inkscape:pageshadow="2"
     inkscape:zoom="0.98994949"
     inkscape:cx="156.66637"
     inkscape:cy="904.99299"
     inkscape:document-units="px"
     inkscape:current-layer="layer1"
     showgrid="false"
     inkscape:window-width="1600"
     inkscape:window-height="848"
     inkscape:window-x="-8"
     inkscape:window-y="-8"
     inkscape:window-maximized="1"
     showguides="false"
     inkscape:snap-global="false">
    <inkscape:grid
       type="xygrid"
       id="grid2997" />
  </sodipodi:namedview>
  <metadata
     id="metadata7">
    <rdf:RDF>
      <cc:Work
         rdf:about="">
        <dc:format>image/svg+xml</dc:format>
        <dc:type
           rdf:resource="http://purl.org/dc/dcmitype/StillImage" />
        <dc:title></dc:title>
      </cc:Work>
    </rdf:RDF>
  </metadata>
  <g
     inkscape:label="Background"
     inkscape:groupmode="layer"
     id="layer1"
     style="display:inline;opacity:1">
    <rect
       rx="50"
       y="291.71732"
       x="128.60048"
       height="169.70563"
       width="486.89352"
       id="rect3783-2"
       style="opacity:1;fill:#3372b5;fill-opacity:1;stroke:none;display:inline;filter:url(#filter3829-4)" />
    <rect
       rx="50"
       y="23.016727"
       x="128.60048"
       height="169.70563"
       width="486.89352"
       id="rect3783"
       style="opacity:1;fill:#3372b5;fill-opacity:1;stroke:none;filter:url(#filter3829)" />
    <rect
       style="fill:#3372b5;fill-opacity:1;stroke:none"
       id="rect2987"
       width="486.89352"
       height="169.70563"
       x="122.53957"
       y="12.915207"
       rx="50" />
    <path
       style="fill:#04050b;fill-opacity:1;stroke:none"
       d="m 550.52011,18.8488 c -126.80613,0.8528 -253.66151,-1.01235 -380.4375,1.03125 -26.71682,4.4982 -45.31282,33.42617 -40.22144,59.81209 0.68096,23.15629 -4.57182,48.54614 6.87769,69.81291 11.41754,18.59004 34.59366,27.26553 55.6875,23.9973 123.58575,-0.60271 247.24004,1.36806 370.78125,-1.0598 26.44414,-5.38594 44.07912,-34.57396 38.81478,-60.68708 -0.66985,-23.02529 4.63297,-48.2177 -7.18978,-69.18792 -9.2872,-14.53513 -26.66634,-24.51723 -44.3125,-23.71875 z"
       id="rect3761"
       inkscape:connector-curvature="0" />
    <rect
       rx="48.132778"
       y="20.996429"
       x="131.63094"
       height="150.51274"
       width="468.71078"
       id="rect2989"
       style="fill:#95a9e9;fill-opacity:1;stroke:none" />
    <path
       style="opacity:0.55000000000000004;fill:#ffffff;fill-opacity:1;stroke:none"
       d="m 181.62789,21.00505 c -26.55082,0 -48.48089,21.45944 -49.19366,48.125 l -0.809,29.65625 c 155.5673,-60.94995 313.15491,-57.55458 468.7222,0 l -1.24242,-29.65625 c 0.71277,-26.66556 -20.06025,-48.125 -46.61107,-48.125 z"
       id="rect3777"
       inkscape:connector-curvature="0"
       sodipodi:nodetypes="sccccss" />
    <rect
       style="fill:#3372b5;fill-opacity:1;stroke:none;display:inline"
       id="rect2987-9"
       width="486.89352"
       height="169.70563"
       x="122.53957"
       y="281.61578"
       rx="50" />
    <path
       style="fill:#04050b;fill-opacity:1;stroke:none;display:inline"
       d="m 550.52012,287.54939 c -126.80614,0.8528 -253.66152,-1.01235 -380.4375,1.03125 -26.71682,4.4982 -45.31282,33.42617 -40.22144,59.81209 0.68096,23.15628 -4.57182,48.54613 6.87769,69.8129 11.41754,18.59004 34.59366,27.26553 55.6875,23.9973 123.58574,-0.60271 247.24003,1.36806 370.78125,-1.0598 26.44414,-5.38594 44.07912,-34.57396 38.81478,-60.68708 -0.66985,-23.02528 4.63297,-48.21769 -7.18978,-69.18791 -9.2872,-14.53513 -26.66634,-24.51723 -44.3125,-23.71875 z"
       id="rect3761-4"
       inkscape:connector-curvature="0" />
    <rect
       rx="48.132778"
       y="289.69702"
       x="131.63094"
       height="150.51274"
       width="468.71078"
       id="rect2989-8"
       style="fill:#95a9e9;fill-opacity:1;stroke:none;display:inline" />
    <path
       style="opacity:0.55000000000000004;fill:#ffffff;fill-opacity:1;stroke:none;display:inline"
       d="m 181.6279,289.70564 c -26.55082,0 -48.48089,21.45944 -49.19366,48.125 l -0.809,29.65625 c 155.56729,-60.94995 313.1549,-57.55458 468.7222,0 l -1.24242,-29.65625 c 0.71277,-26.66556 -20.06025,-48.125 -46.61107,-48.125 z"
       id="rect3777-8"
       inkscape:connector-curvature="0"
       sodipodi:nodetypes="sccccss" />
    <text
       transform="matrix(1.0864911,0,0,0.9203941,-68.840344,172.7361)"
       sodipodi:linespacing="125%"
       id="text3837-4"
       y="247.80438"
       x="227.07227"
       style="font-size:106.32232665999999000px;font-style:normal;font-variant:normal;font-weight:normal;font-stretch:normal;line-height:125%;letter-spacing:0px;word-spacing:0px;opacity:0.63940005000000000;fill:#000000;fill-opacity:1;stroke:none;display:inline;filter:url(#filter3873-1);font-family:Pump Demi Bold LET;-inkscape-font-specification:Pump Demi Bold LET"
       xml:space="preserve"><tspan
         y="247.80438"
         x="227.07227"
         id="tspan3839-5"
         sodipodi:role="line">Options</tspan></text>
    <text
       xml:space="preserve"
       style="font-size:106.32232665999999000px;font-style:normal;font-variant:normal;font-weight:normal;font-stretch:normal;line-height:125%;letter-spacing:0px;word-spacing:0px;fill:#853232;fill-opacity:1;stroke:none;display:inline;font-family:Pump Demi Bold LET;-inkscape-font-specification:Pump Demi Bold LET"
       x="158.13359"
       y="427.79797"
       id="text3833-5"
       sodipodi:linespacing="125%"
       transform="scale(1.0864911,0.9203941)"><tspan
         sodipodi:role="line"
         id="tspan3835-1"
         x="158.13359"
         y="427.79797">Options</tspan></text>
  </g>
  <g
     inkscape:groupmode="layer"
     id="layer3"
     inkscape:label="TextShadow"
     style="display:inline">
    <text
       transform="matrix(1.0864911,0,0,0.9203941,2.6501829,-97.984802)"
       sodipodi:linespacing="125%"
       id="text3837"
       y="247.80438"
       x="227.07227"
       style="font-size:106.32232666px;font-style:normal;font-variant:normal;font-weight:normal;font-stretch:normal;line-height:125%;letter-spacing:0px;word-spacing:0px;opacity:0.63940005;fill:#000000;fill-opacity:1;stroke:none;display:inline;filter:url(#filter3873);font-family:Pump Demi Bold LET;-inkscape-font-specification:Pump Demi Bold LET"
       xml:space="preserve"><tspan
         y="247.80438"
         x="227.07227"
         id="tspan3839"
         sodipodi:role="line">PLAY</tspan></text>
  </g>
  <g
     inkscape:groupmode="layer"
     id="layer2"
     inkscape:label="Text"
     style="display:inline">
    <rect
       rx="50"
       y="555.36713"
       x="128.60048"
       height="169.70563"
       width="486.89352"
       id="rect3783-4"
       style="opacity:1;fill:#3372b5;fill-opacity:1;stroke:none;display:inline;filter:url(#filter3829-1)" />
    <text
       xml:space="preserve"
       style="font-size:106.32232666px;font-style:normal;font-variant:normal;font-weight:normal;font-stretch:normal;line-height:125%;letter-spacing:0px;word-spacing:0px;fill:#853232;fill-opacity:1;stroke:none;display:inline;font-family:Pump Demi Bold LET;-inkscape-font-specification:Pump Demi Bold LET"
       x="219.00293"
       y="136.95468"
       id="text3833"
       sodipodi:linespacing="125%"
       transform="scale(1.0864911,0.9203941)"><tspan
         sodipodi:role="line"
         id="tspan3835"
         x="219.00293"
         y="136.95468">PLAY</tspan></text>
    <rect
       style="fill:#3372b5;fill-opacity:1;stroke:none;display:inline"
       id="rect2987-2"
       width="486.89352"
       height="169.70563"
       x="122.53958"
       y="545.26562"
       rx="50" />
    <path
       style="fill:#04050b;fill-opacity:1;stroke:none;display:inline"
       d="m 550.52012,551.1992 c -126.80613,0.8528 -253.66151,-1.01235 -380.4375,1.03125 -26.71682,4.4982 -45.31282,33.42617 -40.22144,59.81209 0.68096,23.15629 -4.57182,48.54614 6.87769,69.81291 11.41754,18.59004 34.59366,27.26553 55.6875,23.9973 123.58575,-0.60271 247.24004,1.36806 370.78125,-1.0598 26.44414,-5.38594 44.07912,-34.57396 38.81478,-60.68708 -0.66985,-23.02529 4.63297,-48.2177 -7.18978,-69.18792 -9.2872,-14.53513 -26.66634,-24.51723 -44.3125,-23.71875 z"
       id="rect3761-7"
       inkscape:connector-curvature="0" />
    <rect
       rx="48.132778"
       y="553.3468"
       x="131.63094"
       height="150.51274"
       width="468.71078"
       id="rect2989-6"
       style="fill:#95a9e9;fill-opacity:1;stroke:none;display:inline" />
    <path
       style="opacity:0.55;fill:#ffffff;fill-opacity:1;stroke:none;display:inline"
       d="m 181.6279,553.35545 c -26.55082,0 -48.48089,21.45944 -49.19366,48.125 l -0.809,29.65625 c 155.5673,-60.94995 313.15491,-57.55458 468.7222,0 l -1.24242,-29.65625 c 0.71277,-26.66556 -20.06025,-48.125 -46.61107,-48.125 z"
       id="rect3777-1"
       inkscape:connector-curvature="0"
       sodipodi:nodetypes="sccccss" />
    <text
       transform="matrix(1.0864911,0,0,0.9203941,-62.498063,434.3656)"
       sodipodi:linespacing="125%"
       id="text3837-2"
       y="247.80438"
       x="227.07227"
       style="font-size:106.32232666px;font-style:normal;font-variant:normal;font-weight:normal;font-stretch:normal;line-height:125%;letter-spacing:0px;word-spacing:0px;opacity:0.63940005;fill:#000000;fill-opacity:1;stroke:none;display:inline;filter:url(#filter3873-7);font-family:Pump Demi Bold LET;-inkscape-font-specification:Pump Demi Bold LET"
       xml:space="preserve"><tspan
         y="247.80438"
         x="227.07227"
         id="tspan3839-3"
         sodipodi:role="line">Tutorial</tspan></text>
    <text
       xml:space="preserve"
       style="font-size:106.32232666px;font-style:normal;font-variant:normal;font-weight:normal;font-stretch:normal;line-height:125%;letter-spacing:0px;word-spacing:0px;fill:#853232;fill-opacity:1;stroke:none;display:inline;font-family:Pump Demi Bold LET;-inkscape-font-specification:Pump Demi Bold LET"
       x="159.04088"
       y="715.34863"
       id="text3833-2"
       sodipodi:linespacing="125%"
       transform="scale(1.0864911,0.9203941)"><tspan
         sodipodi:role="line"
         id="tspan3835-2"
         x="159.04088"
         y="715.34863">Tutorial</tspan></text>
  </g>
</svg>
