<?xml version="1.0" encoding="UTF-8" standalone="no"?>
<!-- Created with Inkscape (http://www.inkscape.org/) -->

<svg
   xmlns:dc="http://purl.org/dc/elements/1.1/"
   xmlns:cc="http://creativecommons.org/ns#"
   xmlns:rdf="http://www.w3.org/1999/02/22-rdf-syntax-ns#"
   xmlns:svg="http://www.w3.org/2000/svg"
   xmlns="http://www.w3.org/2000/svg"
   xmlns:sodipodi="http://sodipodi.sourceforge.net/DTD/sodipodi-0.dtd"
   xmlns:inkscape="http://www.inkscape.org/namespaces/inkscape"
   width="169.7"
   height="191.19572"
   id="svg3044"
   version="1.1"
   inkscape:version="0.48.2 r9819"
   sodipodi:docname="buttonhelpup.svg"
   inkscape:export-filename="C:\Users\pbarr\git\Repository\Calculate\images\stage_select_screen_atlas_src\buttonhelpup.png"
   inkscape:export-xdpi="90"
   inkscape:export-ydpi="90">
  <defs
     id="defs3046">
    <filter
       id="filter3079"
       inkscape:label="Fancy blur"
       inkscape:menu="Blurs"
       inkscape:menu-tooltip="Smooth colorized contour which allows desaturation and hue rotation"
       color-interpolation-filters="sRGB">
      <feGaussianBlur
         id="feGaussianBlur3081"
         stdDeviation="5"
         result="result1" />
      <feComposite
         id="feComposite3083"
         in2="result1"
         operator="arithmetic"
         k2="2"
         in="result1"
         k1="0"
         k3="0"
         k4="0" />
    </filter>
    <filter
       inkscape:collect="always"
       id="filter3793"
       color-interpolation-filters="sRGB">
      <feGaussianBlur
         inkscape:collect="always"
         stdDeviation="6.0735422"
         id="feGaussianBlur3795" />
    </filter>
  </defs>
  <sodipodi:namedview
     id="base"
     pagecolor="#ffffff"
     bordercolor="#666666"
     borderopacity="1.0"
     inkscape:pageopacity="0.0"
     inkscape:pageshadow="2"
     inkscape:zoom="1.979899"
     inkscape:cx="2.975693"
     inkscape:cy="114.1977"
     inkscape:document-units="px"
     inkscape:current-layer="layer1"
     showgrid="false"
     inkscape:window-width="1600"
     inkscape:window-height="848"
     inkscape:window-x="-8"
     inkscape:window-y="-8"
     inkscape:window-maximized="1"
     inkscape:snap-page="true"
     fit-margin-top="0"
     fit-margin-left="0"
     fit-margin-right="0"
     fit-margin-bottom="0"
     inkscape:snap-grids="false"
     inkscape:snap-to-guides="false" />
  <metadata
     id="metadata3049">
    <rdf:RDF>
      <cc:Work
         rdf:about="">
        <dc:format>image/svg+xml</dc:format>
        <dc:type
           rdf:resource="http://purl.org/dc/dcmitype/StillImage" />
        <dc:title />
      </cc:Work>
    </rdf:RDF>
  </metadata>
  <g
     inkscape:label="Layer 1"
     inkscape:groupmode="layer"
     id="layer1"
     transform="translate(-0.74685024,-0.07707166)">
    <rect
       rx="13.634509"
       y="0"
       x="9.7675123"
       height="169.70563"
       width="486.89352"
       id="rect3767"
       style="fill:#000000;fill-opacity:1;stroke:none;display:inline;filter:url(#filter3793)"
       transform="matrix(0.32884632,0,0,0.96146553,2.3282664,14.091875)" />
    <rect
       style="fill:#398b9b;fill-opacity:1;stroke:none;display:inline"
       id="rect2987"
       width="162.82228"
       height="169.70563"
       x="4.185708"
       y="0"
       rx="4.5595222" />
    <path
       style="font-size:198.71717834px;font-style:normal;font-variant:normal;font-weight:normal;font-stretch:normal;line-height:125%;letter-spacing:0px;word-spacing:0px;fill:#c2eae4;fill-opacity:1;stroke:none;font-family:Pump Demi Bold LET;-inkscape-font-specification:Pump Demi Bold LET"
       d="m 84.34375,32.25 c -17.156132,0.183779 -36.553863,6.481852 -45.40625,22.28125 -0.902323,2.36185 -3.51541,7.736702 -1,8.8125 8.881785,-0.211965 18.609017,0.421517 26.96875,-0.3125 1.36722,-10.258561 13.730314,-14.138475 22.78125,-13.625 8.823118,0.258185 20.0612,6.660071 18.125,16.84375 -2.38291,9.940347 -14.638515,10.784853 -22.0625,15.25 -6.886022,2.733749 -13.103655,8.551064 -12.84375,16.3125 -1.492333,5.66447 7.649867,1.539067 10.937184,2.86868 C 87.455282,100.42915 94.188343,101.44166 99.1875,100 102.03273,92.307304 111.95992,92.010861 117.84375,87.5625 130.34485,81.897979 138.79014,66.073723 131.625,53.28125 122.33309,37.320844 101.63208,31.961088 84.34375,32.25 z M 85,114.0625 c -7.789068,-0.40163 -18.853024,3.80975 -18.75,12.84375 2.823193,9.93937 15.833371,11.68534 24.65625,9.875 6.640712,-0.68228 15.08555,-7.01757 11.65625,-14.25 C 99.363821,116.40116 91.563085,113.88887 85,114.0625 z"
       id="text2991"
       inkscape:connector-curvature="0" />
  </g>
  <g
     inkscape:groupmode="layer"
     id="layer2"
     inkscape:label="Layer"
     transform="translate(-0.74685024,-0.07707166)" />
</svg>
