<?xml version="1.0" encoding="UTF-8" standalone="no"?>
<!-- Created with Inkscape (http://www.inkscape.org/) -->

<svg
   xmlns:dc="http://purl.org/dc/elements/1.1/"
   xmlns:cc="http://creativecommons.org/ns#"
   xmlns:rdf="http://www.w3.org/1999/02/22-rdf-syntax-ns#"
   xmlns:svg="http://www.w3.org/2000/svg"
   xmlns="http://www.w3.org/2000/svg"
   xmlns:sodipodi="http://sodipodi.sourceforge.net/DTD/sodipodi-0.dtd"
   xmlns:inkscape="http://www.inkscape.org/namespaces/inkscape"
   width="488.6329"
   height="718.93262"
   id="svg3044"
   version="1.1"
   inkscape:version="0.48.2 r9819"
   sodipodi:docname="dialogbackground.svg"
   inkscape:export-filename="C:\Users\pbarr\git\Repository\Calculate\images\stage_select_screen_atlas_src2\dialogbackground.png"
   inkscape:export-xdpi="90"
   inkscape:export-ydpi="90">
  <defs
     id="defs3046">
    <filter
       id="filter3079"
       inkscape:label="Fancy blur"
       inkscape:menu="Blurs"
       inkscape:menu-tooltip="Smooth colorized contour which allows desaturation and hue rotation"
       color-interpolation-filters="sRGB">
      <feGaussianBlur
         id="feGaussianBlur3081"
         stdDeviation="5"
         result="result1" />
      <feComposite
         id="feComposite3083"
         in2="result1"
         operator="arithmetic"
         k2="2"
         in="result1"
         k1="0"
         k3="0"
         k4="0" />
    </filter>
    <filter
       inkscape:collect="always"
       id="filter3842"
       color-interpolation-filters="sRGB">
      <feGaussianBlur
         inkscape:collect="always"
         stdDeviation="6.3365407"
         id="feGaussianBlur3844" />
    </filter>
  </defs>
  <sodipodi:namedview
     id="base"
     pagecolor="#ffffff"
     bordercolor="#666666"
     borderopacity="1.0"
     inkscape:pageopacity="0.0"
     inkscape:pageshadow="2"
     inkscape:zoom="0.9899495"
     inkscape:cx="24.18046"
     inkscape:cy="394.26949"
     inkscape:document-units="px"
     inkscape:current-layer="layer1"
     showgrid="false"
     inkscape:window-width="1600"
     inkscape:window-height="848"
     inkscape:window-x="-8"
     inkscape:window-y="-8"
     inkscape:window-maximized="1"
     inkscape:snap-page="false"
     fit-margin-top="0"
     fit-margin-left="0"
     fit-margin-right="0"
     fit-margin-bottom="0"
     inkscape:snap-grids="false"
     inkscape:snap-to-guides="false"
     inkscape:snap-nodes="false"
     inkscape:snap-global="false" />
  <metadata
     id="metadata3049">
    <rdf:RDF>
      <cc:Work
         rdf:about="">
        <dc:format>image/svg+xml</dc:format>
        <dc:type
           rdf:resource="http://purl.org/dc/dcmitype/StillImage" />
        <dc:title></dc:title>
      </cc:Work>
    </rdf:RDF>
  </metadata>
  <g
     inkscape:label="Layer 1"
     inkscape:groupmode="layer"
     id="layer1"
     transform="translate(-156.80905,160.40835)">
    <path
       style="fill:#000000;fill-opacity:1;stroke:none;display:inline;filter:url(#filter3842)"
       d="m 184.15625,-144.59375 c -6.75059,-0.54804 -13.58095,6.1636 -11.28125,13 -1.03831,148.714468 -0.11971,297.45374 -0.46875,446.15625 -0.81191,6.62648 -0.95342,15.82532 5.75,19.21875 49.18297,1.86316 98.53199,0.32746 147.65625,0.8125 6.14949,-1.1085 9.75612,-7.9464 8.00442,-13.78124 0.74241,-152.10153 0.0722,-304.218426 0.40183,-456.31251 -0.56829,-6.00597 -7.0967,-9.54734 -12.68633,-8.04833 -45.76811,-2.02647 -91.60007,0.35413 -137.37617,-1.04542 z"
       id="path3022"
       inkscape:connector-curvature="0"
       transform="matrix(2.5362682,0,0,1.4102993,-240.90077,65.003838)" />
    <path
       style="fill:#004136;fill-opacity:1;stroke:none;display:inline"
       d="m 597.06219,-119.71334 c -1.98169,215.308201 0.92483,430.70821 -1.58517,645.96117 -8.83433,8.97634 -31.6332,4.16785 -46.28684,4.96451 -111.85369,-0.56026 -224.18481,1.435 -335.73856,-1.08619 -15.05024,-7.98657 -3.509,-20.96478 -6.88977,-31.15881 0.7025,-209.0056 -1.44276,-418.112038 1.18317,-627.05434 10.52201,-8.83232 33.06335,-3.58915 48.90234,-4.6609 111.1446,0.66334 222.94364,-1.71094 333.67787,1.31143 6.17891,2.64161 7.17581,7.62363 6.73696,11.72313 z"
       id="rect2987"
       inkscape:connector-curvature="0" />
  </g>
  <g
     inkscape:groupmode="layer"
     id="layer2"
     inkscape:label="Layer"
     transform="translate(-156.80905,160.40835)" />
</svg>
