<?xml version="1.0" encoding="UTF-8" standalone="no"?>
<!-- Created with Inkscape (http://www.inkscape.org/) -->

<svg
   xmlns:dc="http://purl.org/dc/elements/1.1/"
   xmlns:cc="http://creativecommons.org/ns#"
   xmlns:rdf="http://www.w3.org/1999/02/22-rdf-syntax-ns#"
   xmlns:svg="http://www.w3.org/2000/svg"
   xmlns="http://www.w3.org/2000/svg"
   xmlns:xlink="http://www.w3.org/1999/xlink"
   xmlns:sodipodi="http://sodipodi.sourceforge.net/DTD/sodipodi-0.dtd"
   xmlns:inkscape="http://www.inkscape.org/namespaces/inkscape"
   width="283.703"
   height="685.71429"
   id="svg2"
   version="1.1"
   inkscape:version="0.48.2 r9819"
   sodipodi:docname="loserballoon.svg"
   inkscape:export-filename="C:\Users\pbarr\git\Repository\Calculate\images\loser_screen_atlas_src2\loserballoon.png"
   inkscape:export-xdpi="90"
   inkscape:export-ydpi="90">
  <defs
     id="defs4">
    <linearGradient
       id="linearGradient3807">
      <stop
         style="stop-color:#fee9be;stop-opacity:1;"
         offset="0"
         id="stop3809" />
      <stop
         style="stop-color:#fee9be;stop-opacity:0.6964286;"
         offset="1"
         id="stop3811" />
    </linearGradient>
    <linearGradient
       id="linearGradient3785">
      <stop
         style="stop-color:#7a1212;stop-opacity:1;"
         offset="0"
         id="stop3787" />
      <stop
         style="stop-color:#fc4343;stop-opacity:1;"
         offset="1"
         id="stop3789" />
    </linearGradient>
    <linearGradient
       id="linearGradient3769">
      <stop
         style="stop-color:#e2bdbd;stop-opacity:1;"
         offset="0"
         id="stop3771" />
      <stop
         style="stop-color:#000000;stop-opacity:0;"
         offset="1"
         id="stop3773" />
    </linearGradient>
    <inkscape:path-effect
       effect="envelope"
       id="path-effect3846"
       is_visible="true"
       yy="true"
       xx="true"
       bendpath1="m 16.000016,166.26297 c 75.6093,-36.9578 158.287784,-29.21754 244.362994,0"
       bendpath2="m 260.36301,166.26297 0,57.29834"
       bendpath3="m 16.000016,223.56131 c 76.14381,55.96354 157.723304,54.64459 244.362994,0"
       bendpath4="m 16.000016,166.26297 0,57.29834"
       bendpath1-nodetypes="cc"
       bendpath3-nodetypes="cc" />
    <inkscape:path-effect
       effect="envelope"
       id="path-effect3811"
       is_visible="true"
       yy="true"
       xx="true"
       bendpath1="m 16.55097,161.85209 c 83.54167,-37.80661 167.08333,-29.30874 250.625,0"
       bendpath2="m 267.17597,161.85209 0,54.5"
       bendpath3="m 16.55097,216.35209 c 88.09954,41.02088 171.95144,43.81298 250.625,0"
       bendpath4="m 16.55097,161.85209 0,54.5"
       bendpath1-nodetypes="cc"
       bendpath3-nodetypes="cc" />
    <inkscape:path-effect
       effect="bend_path"
       id="path-effect3809"
       is_visible="true"
       bendpath="m 204.3125,195.75 250.625,0"
       prop_scale="1.06"
       scale_y_rel="false"
       vertical="false" />
    <inkscape:path-effect
       effect="skeletal"
       id="path-effect3770"
       is_visible="true"
       pattern="m -212.04724,-6.6479057 0,10 10,-5 z"
       copytype="single_stretched"
       prop_scale="1"
       scale_y_rel="false"
       spacing="0"
       normal_offset="0"
       tang_offset="0"
       prop_units="false"
       vertical_pattern="false"
       fuse_tolerance="0" />
    <filter
       inkscape:collect="always"
       id="filter3801"
       x="-0.12614158"
       width="1.2522832"
       y="-0.1144287"
       height="1.2288574">
      <feGaussianBlur
         inkscape:collect="always"
         stdDeviation="3.7556422"
         id="feGaussianBlur3803" />
    </filter>
    <radialGradient
       inkscape:collect="always"
       xlink:href="#linearGradient3785"
       id="radialGradient3775"
       cx="141.85152"
       cy="212.22745"
       fx="141.85152"
       fy="212.22745"
       r="141.85151"
       gradientTransform="matrix(1,0,0,1.4961241,0,-105.29115)"
       gradientUnits="userSpaceOnUse" />
    <radialGradient
       inkscape:collect="always"
       xlink:href="#linearGradient3785"
       id="radialGradient3791"
       cx="135.36044"
       cy="216.09944"
       fx="135.36044"
       fy="216.09944"
       r="142.35151"
       gradientTransform="matrix(0.0455989,-1.5315166,1.4937196,0.04447354,-193.60381,415.70973)"
       gradientUnits="userSpaceOnUse" />
    <radialGradient
       inkscape:collect="always"
       xlink:href="#linearGradient3807"
       id="radialGradient3813"
       cx="137.97092"
       cy="202.67654"
       fx="137.97092"
       fy="202.67654"
       r="122.48883"
       gradientTransform="matrix(1,0,0,0.50812503,0,99.691517)"
       gradientUnits="userSpaceOnUse" />
    <radialGradient
       inkscape:collect="always"
       xlink:href="#linearGradient3785"
       id="radialGradient3931"
       gradientUnits="userSpaceOnUse"
       gradientTransform="matrix(0.0455989,-1.5315166,1.4937196,0.04447354,-193.60381,415.70973)"
       cx="135.36044"
       cy="216.09944"
       fx="135.36044"
       fy="216.09944"
       r="142.35151" />
    <radialGradient
       inkscape:collect="always"
       xlink:href="#linearGradient3785"
       id="radialGradient3933"
       gradientUnits="userSpaceOnUse"
       gradientTransform="matrix(1,0,0,1.4961241,0,-105.29115)"
       cx="141.85152"
       cy="212.22745"
       fx="141.85152"
       fy="212.22745"
       r="141.85151" />
    <radialGradient
       inkscape:collect="always"
       xlink:href="#linearGradient3785"
       id="radialGradient3937"
       gradientUnits="userSpaceOnUse"
       gradientTransform="matrix(0.0455989,-1.5315166,1.4937196,0.04447354,-193.60381,415.70973)"
       cx="135.36044"
       cy="216.09944"
       fx="135.36044"
       fy="216.09944"
       r="142.35151" />
    <radialGradient
       inkscape:collect="always"
       xlink:href="#linearGradient3785"
       id="radialGradient3939"
       gradientUnits="userSpaceOnUse"
       gradientTransform="matrix(1,0,0,1.4961241,0,-105.29115)"
       cx="141.85152"
       cy="212.22745"
       fx="141.85152"
       fy="212.22745"
       r="141.85151" />
    <radialGradient
       inkscape:collect="always"
       xlink:href="#linearGradient3785"
       id="radialGradient3943"
       gradientUnits="userSpaceOnUse"
       gradientTransform="matrix(0.0455989,-1.5315166,1.4937196,0.04447354,-193.60381,415.70973)"
       cx="135.36044"
       cy="216.09944"
       fx="135.36044"
       fy="216.09944"
       r="142.35151" />
    <radialGradient
       inkscape:collect="always"
       xlink:href="#linearGradient3785"
       id="radialGradient3945"
       gradientUnits="userSpaceOnUse"
       gradientTransform="matrix(1,0,0,1.4961241,0,-105.29115)"
       cx="141.85152"
       cy="212.22745"
       fx="141.85152"
       fy="212.22745"
       r="141.85151" />
    <radialGradient
       inkscape:collect="always"
       xlink:href="#linearGradient3785"
       id="radialGradient3949"
       gradientUnits="userSpaceOnUse"
       gradientTransform="matrix(0.0455989,-1.5315166,1.4937196,0.04447354,-193.60381,415.70973)"
       cx="135.36044"
       cy="216.09944"
       fx="135.36044"
       fy="216.09944"
       r="142.35151" />
    <radialGradient
       inkscape:collect="always"
       xlink:href="#linearGradient3785"
       id="radialGradient3951"
       gradientUnits="userSpaceOnUse"
       gradientTransform="matrix(1,0,0,1.4961241,0,-105.29115)"
       cx="141.85152"
       cy="212.22745"
       fx="141.85152"
       fy="212.22745"
       r="141.85151" />
  </defs>
  <sodipodi:namedview
     id="base"
     pagecolor="#ffffff"
     bordercolor="#666666"
     borderopacity="1.0"
     inkscape:pageopacity="0.0"
     inkscape:pageshadow="2"
     inkscape:zoom="0.9899495"
     inkscape:cx="-167.26001"
     inkscape:cy="445.45773"
     inkscape:document-units="px"
     inkscape:current-layer="layer1"
     showgrid="false"
     inkscape:snap-page="false"
     fit-margin-top="0"
     fit-margin-left="0"
     fit-margin-right="0"
     fit-margin-bottom="0"
     inkscape:window-width="1600"
     inkscape:window-height="848"
     inkscape:window-x="-8"
     inkscape:window-y="-8"
     inkscape:window-maximized="1" />
  <metadata
     id="metadata7">
    <rdf:RDF>
      <cc:Work
         rdf:about="">
        <dc:format>image/svg+xml</dc:format>
        <dc:type
           rdf:resource="http://purl.org/dc/dcmitype/StillImage" />
        <dc:title />
      </cc:Work>
    </rdf:RDF>
  </metadata>
  <g
     inkscape:label="Layer 1"
     inkscape:groupmode="layer"
     id="layer1">
    <path
       sodipodi:nodetypes="sssssss"
       inkscape:connector-curvature="0"
       id="path3815"
       d="m 283.70301,167.58272 c 0,58.605 -7.67099,122.82304 -33.34105,172.38984 -25.67008,49.5668 -69.33924,84.48235 -108.51045,84.48235 -39.17121,0 -66.42781,-34.91555 -92.09788,-84.48235 C 24.08356,290.40576 0,226.18772 0,167.58272 0,50.372733 63.50909,0 141.85151,0 c 78.34242,0 141.8515,50.372733 141.8515,167.58272 z"
       style="fill:#333333;fill-opacity:1;stroke:url(#radialGradient3775)" />
    <path
       style="fill:url(#radialGradient3949);fill-opacity:1;stroke:url(#radialGradient3951)"
       d="M 140.0625,6 C 97.79901,5.4236667 53.8151,25.279675 31.772545,62.372944 7.7834399,100.92026 3.3162004,148.20195 7.5625,192.65625 c 6.843685,61.08397 31.912825,118.61256 62.5,171.15625 13.160448,21.52181 30.26469,43.56463 54.6875,52.0625 24.75084,7.4444 50.91742,-2.79 70.45294,-18.16689 39.85937,-29.91525 62.79135,-78.15322 72.43692,-126.26408 9.87453,-46.35168 12.41968,-94.44048 7.6493,-141.55797 C 270.17585,91.771663 253.67848,52.542779 221.625,29.6875 198.225,12.8702 168.73653,5.4888697 140.0625,6 z"
       id="path2985"
       inkscape:connector-curvature="0" />
    <path
       style="fill:#fc4343;fill-opacity:1;stroke:none"
       d="m 147.43545,391.83189 c -2.25836,-14.56082 23.33332,76.00865 16.45915,70.56398 -11.33828,-8.98048 -45.26267,-3.36019 -45.26267,-3.36019 0,0 32.68486,-42.17868 28.80352,-67.20379 z"
       id="rect2988"
       inkscape:connector-curvature="0"
       sodipodi:nodetypes="sscs" />
    <path
       style="fill:#fcfcfc;fill-opacity:1;stroke:none;filter:url(#filter3801)"
       d="m 36.825132,108.51854 c -5.031985,-2.83915 -2.309014,-8.654774 -0.426887,-15.554145 6.659113,-24.410536 21.460576,-43.318687 46.118609,-55.565998 7.366437,-3.658806 12.707138,-8.143641 17.739116,-5.30449 5.03197,2.839147 8.30632,12.590364 0.42689,15.554131 -28.532418,10.732207 -41.685209,30.568376 -46.118606,55.566002 -1.246145,7.02663 -12.707135,8.14364 -17.739122,5.3045 z"
       id="rect2997"
       inkscape:connector-curvature="0"
       sodipodi:nodetypes="sssssss" />
    <path
       style="fill:#000000;fill-rule:evenodd;stroke:none"
       d="m 151.91518,444.20799 -9.99954,0.095 c 0.40084,14.78424 0.32208,29.50305 -1.39625,43.99259 -1.08612,8.96107 -2.63894,17.761 -5.98958,25.75295 -1e-5,10e-6 -1e-5,10e-6 -1e-5,2e-5 -2.07597,4.90835 -4.8026,9.49224 -8.57694,12.83055 -1e-5,10e-6 -1e-5,10e-6 -1e-5,10e-6 -2.79227,2.54904 -6.32974,4.43426 -10.10616,5.95222 -3.4813,1.38055 -7.33249,2.50185 -11.18583,4.19969 0,0 -1e-5,10e-6 -1e-5,10e-6 -1.88388,0.82993 -3.75203,1.82795 -5.518523,3.06407 -1.863302,1.31013 -3.545044,2.87426 -4.979804,4.64806 -1.671716,2.08072 -2.976161,4.37051 -3.979155,6.7318 -10e-7,0 -2e-6,0 -3e-6,0 -1.283816,3.02013 -2.137854,6.13985 -2.737878,9.24324 -1.833967,9.4912 -1.781219,19.08359 -1.328618,28.46835 0,0 0,0 1e-6,10e-6 0.869712,18.58871 0.859219,37.27059 -2.167758,55.59483 -10e-7,10e-6 -2e-6,10e-6 -2e-6,2e-5 -1.65582,9.9681 -4.082692,19.94954 -9.173087,28.65247 -2.488758,4.259 -5.681327,8.27766 -10.019264,10.68027 -1.577402,0.53159 -3.16194,1.06496 -4.753612,1.60011 -1.8e-5,0 -2.7e-5,0 -2.7e-5,0 0,0 9e-6,0 2.7e-5,0 1.600832,-0.47583 3.208798,-0.95345 4.8239,-1.43284 4.452785,-2.26664 7.878019,-6.22904 10.565974,-10.47184 3e-6,0 5e-6,0 8e-6,-10e-6 5.467834,-8.637 8.336876,-18.69957 10.348873,-28.69885 0,-10e-6 10e-7,-10e-6 10e-7,-10e-6 3.718597,-18.3983 4.433553,-37.30324 4.219908,-56.03576 0,-10e-6 0,-10e-6 0,-2e-5 -0.08952,-9.29117 0.174267,-18.56158 2.236145,-27.3435 0.668569,-2.84683 1.521902,-5.60416 2.722204,-8.13774 0.932874,-1.96669 2.057175,-3.80161 3.42347,-5.36088 10e-7,-10e-6 2e-6,-10e-6 4e-6,-10e-6 1.154183,-1.32814 2.505276,-2.49134 3.983436,-3.45261 1.40677,-0.92095 2.97385,-1.67492 4.62338,-2.34083 3.40875,-1.37652 7.20258,-2.32226 11.10625,-3.70789 4.30914,-1.51063 8.572,-3.63658 12.31734,-6.72742 4.87331,-4.12185 8.41573,-9.43846 10.92246,-14.99122 0,0 0,0 0,-10e-6 4.03124,-8.85894 6.12352,-18.31495 7.53023,-27.58109 2.31985,-15.03714 2.97085,-30.20782 3.08845,-45.22378 z"
       id="path3768"
       inkscape:path-effect="#path-effect3770"
       inkscape:original-d="m 146.91541,444.25551 c 1.40181,147.48564 -61.67969,48.29176 -58.87607,144.87527 2.80362,96.58352 -28.03622,96.58352 -28.03622,96.58352 l 0,0"
       inkscape:connector-curvature="0" />
    <g
       transform="scale(1.0265592,0.97412796)"
       style="font-size:84.42230225000000100px;font-style:normal;font-variant:normal;font-weight:bold;font-stretch:normal;line-height:125%;letter-spacing:0px;word-spacing:0px;fill:url(#radialGradient3813);fill-opacity:1;stroke:#000000;font-family:Liberation Mono;-inkscape-font-specification:Liberation Mono Bold;stroke-opacity:1"
       id="text3831"
       inkscape:path-effect="#path-effect3846">
      <path
         d="m 16.452872,222.60805 c 0.996353,-2.22641 1.33559,-4.51209 1.373983,-6.82501 0.03839,-2.31291 -0.224059,-4.65305 -0.533492,-6.99755 -0.309432,-2.34449 -0.665845,-4.69335 -0.917779,-7.0329 -0.251934,-2.33955 -0.399389,-4.66979 -0.393312,-6.98625 0.0061,-2.31647 0.165686,-4.61916 0.425476,-6.9128 0.25979,-2.29365 0.619761,-4.57824 0.924154,-6.86772 0.304394,-2.28948 0.553211,-4.58384 0.488289,-6.90621 -0.06492,-2.32237 -0.443585,-4.67275 -1.496555,-7.08346 3.917477,-0.84302 7.82309,-1.81406 11.731009,-2.86018 1.005504,2.58287 1.566302,5.00844 1.874266,7.31996 0.307964,2.31152 0.363094,4.50898 0.312727,6.63163 -0.05037,2.12264 -0.206232,4.17047 -0.364789,6.17871 -0.158557,2.00823 -0.319806,3.97688 -0.425477,5.93717 -0.105671,1.96028 -0.155762,3.9122 -0.136537,5.88297 0.01923,1.97077 0.107767,3.96039 0.234832,5.99207 0.127064,2.03168 0.29265,4.10541 0.421431,6.24041 0.128781,2.135 0.220755,4.33126 0.156063,6.60397 8.475596,1.38808 16.723185,3.2954 24.913486,5.33277 -0.495345,5.02937 -1.413082,10.6947 -3.364163,17.25454 -11.881269,-5.70548 -23.430816,-11.30268 -35.223612,-14.90212 z"
         style="fill:url(#radialGradient3813);fill-opacity:1;stroke:#000000;stroke-opacity:1"
         id="path3836"
         inkscape:original-d="m 16.000016,222.73688 0,-55.60825 12.160439,0 0,46.20967 25.392646,0 0,9.39858 z" />
      <path
         d="m 106.39899,197.95568 c -0.024,3.56847 -0.17786,6.99405 -0.46862,10.40155 -0.29076,3.40751 -0.71941,6.79387 -1.29821,10.15783 -0.57881,3.36397 -1.30825,6.70268 -2.19519,9.93307 -0.88694,3.23038 -1.93167,6.34987 -3.129843,9.23408 -2.396384,5.76844 -5.352822,10.49177 -8.642636,13.22087 -1.644908,1.36455 -3.369337,2.23724 -5.133966,2.56927 -1.764629,0.33202 -3.568497,0.12292 -5.380165,-0.60973 -1.960294,-0.79276 -3.681089,-2.09527 -5.165857,-3.79929 0,0 -10e-7,0 -10e-7,0 -2.002282,-2.29756 -3.572961,-5.32025 -4.842448,-8.75345 -1.269486,-3.43319 -2.247279,-7.27081 -3.103973,-11.24109 -1.17438,-5.4425 -2.107056,-11.02423 -2.854152,-16.50083 -0.373549,-2.7383 -0.689885,-5.45776 -0.907099,-8.19273 -0.217213,-2.73496 -0.331672,-5.48304 -0.308639,-8.35243 0.02303,-2.86937 0.181002,-5.52322 0.444747,-8.09766 0.263745,-2.57445 0.629525,-5.06743 1.058943,-7.5342 0.429418,-2.46677 0.921139,-4.90608 1.465031,-7.31668 0.543892,-2.4106 1.140338,-4.79161 1.813839,-7.10091 0.98263,-3.36917 2.097786,-6.57821 3.490899,-9.38817 1.393113,-2.80997 3.072457,-5.2138 5.14149,-6.94633 0,0 0,0 0,0 1.534364,-1.28487 3.281802,-2.19951 5.240898,-2.66213 1.810575,-0.42747 3.589861,-0.41728 5.311566,0.0384 1.721705,0.4557 3.385039,1.3564 4.958316,2.65731 3.146552,2.60182 5.919775,6.81987 8.14845,11.89297 1.11433,2.53662 2.08022,5.28021 2.89501,8.13771 0.81479,2.8575 1.47879,5.82637 1.99846,8.86014 0.51968,3.03377 0.89557,6.1296 1.13716,9.3279 0.24159,3.1983 0.34998,6.49606 0.32599,10.06452 z m -11.836579,-0.46001 c 0.01904,-2.30456 -0.02083,-4.43966 -0.118634,-6.45617 -0.0978,-2.01652 -0.253893,-3.9135 -0.469309,-5.70376 -0.430833,-3.58051 -1.102189,-6.7438 -1.998297,-9.34227 -0.896137,-2.5984 -2.013068,-4.65531 -3.307252,-5.98644 -1.294184,-1.33112 -2.762142,-1.92815 -4.372444,-1.74974 -2.107011,0.23353 -3.76677,1.73302 -5.05652,4.17191 -0.682429,1.28928 -1.265257,2.83497 -1.768079,4.57714 -0.727098,2.51926 -1.285387,5.44094 -1.686311,8.68578 -0.400924,3.24484 -0.636937,6.79361 -0.673488,10.90902 -0.03656,4.11543 0.133689,7.86711 0.465376,11.41569 0.331686,3.54857 0.817697,6.87588 1.471692,9.84245 0.452262,2.05157 0.9857,3.90458 1.625477,5.47808 1.209036,2.97756 2.81511,4.92988 4.921152,5.43055 1.609553,0.38266 3.107617,-0.18107 4.452263,-1.63843 1.344645,-1.45736 2.531309,-3.79925 3.500243,-6.76352 0.968901,-2.96423 1.712114,-6.48614 2.213,-10.33145 0.500886,-3.84532 0.763502,-7.98905 0.801131,-12.53884 z"
         style="fill:url(#radialGradient3813);fill-opacity:1;stroke:#000000;stroke-opacity:1"
         id="path3838"
         inkscape:original-d="m 105.61627,194.74726 c -5e-5,9.48104 -1.92373,16.65363 -5.771058,21.51779 -3.847408,4.86418 -9.371128,7.29626 -16.571174,7.29626 -7.200097,0 -12.730687,-2.43208 -16.591786,-7.29626 -3.861116,-4.86416 -5.791669,-12.03675 -5.791666,-21.51779 -3e-6,-9.48099 1.93055,-16.59861 5.791666,-21.35291 3.861099,-4.7542 9.391689,-7.13132 16.591786,-7.13138 7.200046,6e-5 12.723766,2.37718 16.571174,7.13138 3.847328,4.7543 5.771008,11.87192 5.771058,21.35291 z m -12.325328,0 c -3.5e-5,-6.40309 -0.838212,-11.15734 -2.514532,-14.26276 -1.676385,-3.10533 -4.177173,-4.65802 -7.502372,-4.65806 -3.32525,4e-5 -5.832908,1.57334 -7.522984,4.7199 -1.690111,3.14664 -2.535157,7.88027 -2.535142,14.20092 -1.5e-5,6.3207 0.845031,11.1093 2.535142,14.3658 1.690076,3.25654 4.197734,4.8848 7.522984,4.88479 3.325199,1e-5 5.825987,-1.62825 7.502372,-4.88479 1.67632,-3.2565 2.514497,-8.0451 2.514532,-14.3658 z" />
      <path
         d="m 155.36201,218.4251 c 0.0711,4.65638 -0.27145,9.52191 -1.04085,14.60386 -0.76947,5.08201 -1.98913,10.11708 -3.74727,14.77042 -1.75823,4.65338 -4.0695,8.7722 -6.99842,11.86688 -2.61777,2.76581 -5.75152,4.43541 -9.32995,4.70916 -0.0521,0.004 -0.10434,0.008 -0.15665,0.0111 -0.37461,0.0244 -0.75391,0.0338 -1.13772,0.028 -3.45479,-0.0517 -6.57451,-1.48775 -9.26886,-4.06264 -2.69434,-2.5749 -4.96293,-6.27693 -6.83237,-10.65617 -1.86944,-4.37923 -3.28517,-9.31851 -4.34229,-14.41039 -1.05711,-5.09187 -1.7609,-10.32549 -2.16679,-15.47633 3.81312,-0.64692 7.61622,-1.37412 11.40863,-2.16761 0.52919,5.00544 1.70874,9.59786 3.60862,13.2322 0.94992,1.81721 2.09643,3.2673 3.44105,4.25713 1.34462,0.98984 2.8873,1.51785 4.61734,1.53679 0.24626,0.003 0.4887,-0.002 0.72729,-0.0151 0.0487,-0.003 0.0971,-0.006 0.14547,-0.009 1.29133,-0.0857 2.4685,-0.39972 3.52778,-0.92584 1.29382,-0.64259 2.39756,-1.67203 3.31,-3.02897 0.91238,-1.35689 1.59895,-3.12324 2.06638,-5.2013 0.46735,-2.078 0.68894,-4.4955 0.67427,-7.14451 -0.0166,-2.98003 -0.44328,-5.22192 -1.28277,-6.92814 -0.83955,-1.70614 -1.89979,-3.05798 -3.18216,-4.11556 -1.28244,-1.05751 -2.70089,-1.91352 -4.25602,-2.58824 -0.24718,-0.10722 -0.49296,-0.21475 -0.73735,-0.32257 -0.0468,-0.0206 -0.0935,-0.0412 -0.14025,-0.0618 -1.23955,-0.54953 -2.44383,-1.10655 -3.61311,-1.66929 -1.23267,-0.60136 -2.5237,-1.25837 -3.87326,-1.96826 -1.34959,-0.70979 -2.66532,-1.5589 -3.94773,-2.53871 -1.28243,-0.97974 -2.49862,-2.11054 -3.64972,-3.38862 -1.15112,-1.27797 -2.15801,-2.78474 -3.02361,-4.53655 -0.86562,-1.75171 -1.5568,-3.76648 -2.08107,-6.11894 -0.52429,-2.35235 -0.80239,-5.10146 -0.85575,-8.45991 -0.0758,-4.76981 0.35557,-9.42521 1.34495,-13.78975 0.98936,-4.36434 2.35473,-8.45657 4.17155,-11.91114 1.81683,-3.45429 3.98569,-6.2888 6.51977,-8.17467 2.53406,-1.88557 5.24669,-2.87067 8.07367,-2.83267 0.31141,0.004 0.61945,0.0181 0.92404,0.0416 0,0 0,0 0,0 0.0503,0.004 0.10045,0.008 0.15053,0.0124 0,0 0,0 0,0 2.90818,0.25507 5.49268,1.39771 7.71683,3.28247 2.22415,1.88476 4.08854,4.50602 5.61479,7.62078 1.61897,3.30419 2.88866,7.23967 3.87041,11.46973 0.98174,4.23007 1.68,8.74063 2.12589,13.34969 -3.8009,0.59565 -7.58856,1.22291 -11.36543,1.86983 -0.57327,-4.45869 -1.59667,-8.25516 -3.10171,-10.9364 -1.25321,-2.23237 -2.88941,-3.65291 -4.90276,-4.07006 0,0 0,0 0,0 -0.0473,-0.01 -0.0948,-0.019 -0.14258,-0.0277 0,0 0,0 0,0 -0.35954,-0.0656 -0.73085,-0.10002 -1.11377,-0.103 -1.68302,-0.0129 -3.07749,0.3761 -4.17724,1.13545 -1.09979,0.75954 -1.97961,1.78191 -2.64145,3.02659 -0.66188,1.24488 -1.12048,2.6248 -1.38016,4.11319 -0.2597,1.48857 -0.3812,2.99166 -0.36658,4.50696 0.0234,2.42465 0.3651,4.31275 1.02968,5.78704 0.66454,1.47443 1.5281,2.66984 2.59282,3.62147 1.06469,0.95174 2.28489,1.74803 3.66137,2.39821 0.80982,0.38259 1.6262,0.76002 2.44923,1.13221 0.0466,0.021 0.0933,0.042 0.13999,0.063 0.53165,0.2394 1.06621,0.47661 1.60371,0.71159 1.39402,0.57724 2.82833,1.22703 4.30354,1.94593 1.47515,0.719 2.92545,1.56059 4.35143,2.52182 1.4259,0.96133 2.77482,2.08442 4.04715,3.37449 1.27225,1.29016 2.38874,2.82062 3.35026,4.62662 0.96144,1.80606 1.73453,3.93877 2.3247,6.50872 0.59008,2.57002 0.90346,5.64179 0.96251,9.5044 0,0 0,0 0,0 z"
         style="fill:url(#radialGradient3813);fill-opacity:1;stroke:#000000;stroke-opacity:1"
         id="path3840"
         inkscape:original-d="m 156.56645,206.61914 c -5e-5,2.41836 -0.46723,4.66495 -1.40155,6.73977 -0.9344,2.07484 -2.34968,3.86799 -4.24584,5.37945 -1.89625,1.51147 -4.27337,2.69316 -7.13138,3.54508 -2.85808,0.85191 -6.21078,1.27787 -10.05813,1.27787 -6.4581,0 -11.72075,-1.36032 -15.78796,-4.08096 -4.06722,-2.72063 -6.67793,-6.67792 -7.83214,-11.87188 l 11.74822,-1.52521 c 0.63205,2.58325 1.95115,4.62373 3.95729,6.12144 2.00611,1.49774 4.75423,2.2466 8.24437,2.24659 1.64884,1e-5 3.12596,-0.12366 4.43134,-0.371 1.30533,-0.24732 2.42519,-0.6458 3.35958,-1.19543 0.93433,-0.54961 1.64884,-1.28474 2.14354,-2.20537 0.49462,-0.9206 0.74196,-2.04046 0.74199,-3.35958 -3e-5,-1.48396 -0.43286,-2.70001 -1.29849,-3.64813 -0.86569,-0.94808 -1.96494,-1.73129 -3.29774,-2.34964 -1.33287,-0.61831 -2.80999,-1.12671 -4.43135,-1.52521 -1.62142,-0.39845 -3.18784,-0.8038 -4.69929,-1.21604 -1.29164,-0.35723 -2.64508,-0.74884 -4.06035,-1.17483 -1.4153,-0.42593 -2.79623,-0.9412 -4.14279,-1.54581 -1.34659,-0.60456 -2.62447,-1.3122 -3.83363,-2.12293 -1.20918,-0.81066 -2.26721,-1.77938 -3.17408,-2.90614 -0.90689,-1.12669 -1.62827,-2.42518 -2.16415,-3.89546 -0.53589,-1.47021 -0.80383,-3.15343 -0.80382,-5.04967 -1e-5,-2.69312 0.58397,-5.02215 1.75193,-6.9871 1.16794,-1.96486 2.7275,-3.58625 4.67867,-4.86418 1.95116,-1.27782 4.19087,-2.22592 6.71916,-2.8443 2.52825,-0.61828 5.16645,-0.92744 7.91459,-0.9275 6.15576,6e-5 10.96497,1.2161 14.42764,3.64814 3.46259,2.43213 5.70231,6.20393 6.71916,11.31539 l -11.78944,1.19543 c -0.60462,-2.50075 -1.69013,-4.38321 -3.25653,-5.64739 -1.56646,-1.26409 -3.68251,-1.89616 -6.34816,-1.8962 -1.73134,4e-5 -3.16723,0.1718 -4.30768,0.51527 -1.14049,0.34356 -2.06111,0.81074 -2.76186,1.40154 -0.70079,0.59089 -1.19545,1.26418 -1.48399,2.01987 -0.28857,0.75578 -0.43284,1.54586 -0.43283,2.37026 -10e-6,1.31913 0.3435,2.41151 1.03055,3.27713 0.68701,0.8657 1.58702,1.58708 2.70003,2.16415 1.11297,0.57714 2.39084,1.06493 3.83363,1.46337 1.44274,0.39851 2.90611,0.79012 4.39012,1.17482 1.45648,0.35729 2.9542,0.76264 4.49318,1.21605 1.53892,0.45347 3.05038,0.98935 4.5344,1.60765 1.48395,0.61836 2.88549,1.34661 4.20463,2.18476 1.31905,0.8382 2.47326,1.83439 3.46263,2.98858 0.98928,1.15423 1.77936,2.50081 2.37026,4.03974 0.5908,1.53897 0.88622,3.3115 0.88627,5.31761 z" />
      <path
         d="m 165.73642,257.92786 c -1.46223,-15.12885 -1.9675,-26.48677 -2.23291,-35.80603 -0.26541,-9.31927 -0.29096,-16.59987 -0.33393,-23.58468 -0.043,-6.98481 -0.10339,-13.67384 0.0213,-21.82053 0.1247,-8.1467 0.43448,-17.75106 1.5917,-30.57717 9.82637,1.45223 19.60345,3.44543 29.32313,5.70557 3.60709,0.83861 7.20649,1.71269 10.79867,2.60492 -1.3978,6.78745 -2.03173,12.49704 -2.35797,17.54115 -3.56223,-0.38075 -7.1143,-0.76064 -10.65861,-1.13061 -5.55632,-0.58159 -11.09346,-1.13385 -16.61676,-1.62521 -0.3956,8.48063 -0.36508,15.21464 -0.33241,21.66022 5.50401,-0.0392 11.03849,-0.0914 16.61385,-0.15356 2.72864,-0.031 5.46703,-0.0656 8.217,-0.10289 0.0453,4.01012 0.0828,7.91192 0.1198,12.09635 -2.74768,0.22306 -5.48465,0.44259 -8.21297,0.65456 -5.57471,0.43216 -11.1134,0.83658 -16.62616,1.18532 0.0802,7.10635 0.17278,15.01672 0.83341,25.39058 5.57408,-1.0084 11.13717,-2.17082 16.69064,-3.41695 4.0969,-0.91949 8.18916,-1.88508 12.28374,-2.86356 0.50372,5.66931 1.37298,12.1293 3.10032,19.71123 -4.09971,1.76675 -8.23447,3.49247 -12.41013,5.12882 -9.72886,3.81266 -19.69193,7.1104 -29.81171,9.40247 z"
         style="fill:url(#radialGradient3813);fill-opacity:1;stroke:#000000;stroke-opacity:1"
         id="path3842"
         inkscape:original-d="m 164.81081,222.73688 0,-55.60825 39.90273,0 0,9.39858 -27.74229,0 0,13.35587 25.22775,0 0,9.39858 -25.22775,0 0,14.05664 29.43238,0 0,9.39858 z" />
      <path
         d="m 246.84469,226.83991 c -3.53163,-3.98098 -5.93601,-8.184 -8.067,-12.26643 -2.13098,-4.08244 -3.98482,-8.04667 -5.9467,-11.8763 -2.46099,0.18826 -4.90704,0.39007 -7.34006,0.60157 -0.055,4.16698 -0.15291,8.63447 0.14813,13.70745 0.30103,5.07298 1.00104,10.75146 2.92372,17.30388 -3.90093,1.70603 -7.81984,3.46011 -11.76641,5.21118 -1.29507,-5.06018 -2.08693,-9.60409 -2.60333,-13.74072 -0.5164,-4.13662 -0.75733,-7.86596 -0.88695,-11.30242 -0.12962,-3.43647 -0.14793,-6.58005 -0.15549,-9.55061 -0.008,-2.97056 -0.004,-5.76808 -0.0274,-8.51787 -0.023,-2.74979 -0.0723,-5.45184 -0.12126,-8.23687 -0.0489,-2.78503 -0.0975,-5.65305 -0.0555,-8.74021 0.042,-3.08717 0.17455,-6.39348 0.55142,-10.06054 0.37688,-3.66707 0.99807,-7.69488 2.08095,-12.23048 6.74821,1.71536 13.47378,3.42965 20.18917,5.00609 3.58876,0.84251 6.54583,2.07425 8.97388,3.51137 2.42805,1.43712 4.33756,3.07751 5.90581,4.88197 1.5682,1.80451 2.82067,3.73439 3.80234,5.87257 0.98167,2.13818 1.69383,4.49069 1.9746,7.14211 0.21412,2.02278 0.0894,3.84825 -0.41589,5.49368 -0.50533,1.64548 -1.31096,3.10118 -2.38778,4.37263 -1.0769,1.2715 -2.39256,2.37901 -3.91469,3.32945 -1.52223,0.95051 -3.19081,1.72196 -4.98768,2.31264 1.20753,2.02488 2.35668,4.06422 3.47715,6.11534 1.12047,2.05112 2.21204,4.11415 3.34969,6.15171 1.13764,2.03756 2.32117,4.04979 3.67398,5.96251 1.35281,1.91272 2.87475,3.72606 4.74036,5.32704 -4.38991,1.18527 -8.75384,2.6181 -13.11506,4.21926 z m -3.34687,-42.83852 c -0.0935,-1.46585 -0.41599,-2.72644 -0.95532,-3.78476 -0.53938,-1.05824 -1.27001,-1.95039 -2.2011,-2.67061 -0.93114,-0.7201 -2.06373,-1.29156 -3.41046,-1.701 -1.34678,-0.40934 -2.87878,-0.69522 -4.60227,-0.84049 -2.33508,-0.19672 -4.66235,-0.40482 -6.98278,-0.62141 -0.19504,3.43986 -0.15782,6.58056 -0.0855,9.57612 0.0724,2.99556 0.17985,5.84599 0.23381,8.6949 2.49037,-0.0718 4.99497,-0.14183 7.51553,-0.20878 3.78082,-0.10039 6.55306,-0.87825 8.23406,-2.30726 1.68092,-1.42895 2.42623,-3.43486 2.25399,-6.13671 0,0 0,0 0,0 z"
         style="fill:url(#radialGradient3813);fill-opacity:1;stroke:#000000;stroke-opacity:1"
         id="path3844"
         inkscape:original-d="m 246.67736,222.73688 -11.95433,-21.22924 -7.13138,0 0,21.22924 -12.16044,0 0,-55.60825 20.36359,0 c 7.25501,6e-5 12.68254,1.41534 16.28262,4.24585 3.59999,2.83061 5.40001,6.91157 5.40006,12.24288 -5e-5,2.03365 -0.2886,3.87489 -0.86566,5.52373 -0.57715,1.6489 -1.37411,3.09854 -2.39087,4.3489 -1.01684,1.25042 -2.22602,2.32219 -3.62752,3.2153 -1.40158,0.89317 -2.94053,1.58707 -4.61684,2.08171 l 14.38642,23.94988 z m -1.44276,-38.62485 c -4e-5,-1.40151 -0.2405,-2.5832 -0.72139,-3.54508 -0.48095,-0.9618 -1.17485,-1.73814 -2.0817,-2.32904 -0.90691,-0.5908 -2.02677,-1.01675 -3.35958,-1.27787 -1.33286,-0.26103 -2.8512,-0.39156 -4.55501,-0.39161 l -6.92527,0 0,15.49941 7.25504,0 c 3.6275,3e-5 6.26569,-0.68013 7.9146,-2.04048 1.64883,-1.36029 2.47327,-3.33206 2.47331,-5.91533 z" />
    </g>
  </g>
</svg>
