<?xml version="1.0" encoding="UTF-8" standalone="no"?>
<!-- Created with Inkscape (http://www.inkscape.org/) -->

<svg
   xmlns:dc="http://purl.org/dc/elements/1.1/"
   xmlns:cc="http://creativecommons.org/ns#"
   xmlns:rdf="http://www.w3.org/1999/02/22-rdf-syntax-ns#"
   xmlns:svg="http://www.w3.org/2000/svg"
   xmlns="http://www.w3.org/2000/svg"
   xmlns:sodipodi="http://sodipodi.sourceforge.net/DTD/sodipodi-0.dtd"
   xmlns:inkscape="http://www.inkscape.org/namespaces/inkscape"
   width="283.703"
   height="685.71429"
   id="svg2"
   version="1.1"
   inkscape:version="0.48.2 r9819"
   sodipodi:docname="winnerballoon.svg"
   inkscape:export-filename="C:\Users\pbarr\git\Repository\Calculate\images\winner_screen_atlas_src2\winnerballoon.png"
   inkscape:export-xdpi="90"
   inkscape:export-ydpi="90">
  <defs
     id="defs4">
    <inkscape:path-effect
       effect="envelope"
       id="path-effect3811"
       is_visible="true"
       yy="true"
       xx="true"
       bendpath1="m 16.55097,161.85209 c 83.54167,-37.80661 167.08333,-29.30874 250.625,0"
       bendpath2="m 267.17597,161.85209 0,54.5"
       bendpath3="m 16.55097,216.35209 c 88.09954,41.02088 171.95144,43.81298 250.625,0"
       bendpath4="m 16.55097,161.85209 0,54.5"
       bendpath1-nodetypes="cc"
       bendpath3-nodetypes="cc" />
    <inkscape:path-effect
       effect="bend_path"
       id="path-effect3809"
       is_visible="true"
       bendpath="m 204.3125,195.75 250.625,0"
       prop_scale="1.06"
       scale_y_rel="false"
       vertical="false" />
    <inkscape:path-effect
       effect="skeletal"
       id="path-effect3770"
       is_visible="true"
       pattern="m -212.04724,-6.6479057 0,10 10,-5 z"
       copytype="single_stretched"
       prop_scale="1"
       scale_y_rel="false"
       spacing="0"
       normal_offset="0"
       tang_offset="0"
       prop_units="false"
       vertical_pattern="false"
       fuse_tolerance="0" />
    <filter
       inkscape:collect="always"
       id="filter4375"
       x="-0.12950281"
       width="1.2590056"
       y="-0.11179647"
       height="1.2235929">
      <feGaussianBlur
         inkscape:collect="always"
         stdDeviation="3.4889125"
         id="feGaussianBlur4377" />
    </filter>
  </defs>
  <sodipodi:namedview
     id="base"
     pagecolor="#ffffff"
     bordercolor="#666666"
     borderopacity="1.0"
     inkscape:pageopacity="0.0"
     inkscape:pageshadow="2"
     inkscape:zoom="0.49497475"
     inkscape:cx="-113.13835"
     inkscape:cy="462.63032"
     inkscape:document-units="px"
     inkscape:current-layer="layer1"
     showgrid="false"
     inkscape:snap-page="false"
     fit-margin-top="0"
     fit-margin-left="0"
     fit-margin-right="0"
     fit-margin-bottom="0"
     inkscape:window-width="1600"
     inkscape:window-height="848"
     inkscape:window-x="-8"
     inkscape:window-y="-8"
     inkscape:window-maximized="1" />
  <metadata
     id="metadata7">
    <rdf:RDF>
      <cc:Work
         rdf:about="">
        <dc:format>image/svg+xml</dc:format>
        <dc:type
           rdf:resource="http://purl.org/dc/dcmitype/StillImage" />
        <dc:title></dc:title>
      </cc:Work>
    </rdf:RDF>
  </metadata>
  <g
     inkscape:label="Layer 1"
     inkscape:groupmode="layer"
     id="layer1">
    <g
       id="g3813"
       transform="translate(-187.76153,-6.6479057)">
      <path
         sodipodi:nodetypes="sssssss"
         inkscape:connector-curvature="0"
         id="path2985"
         d="m 471.46454,174.23063 c 0,58.605 -7.67099,122.82304 -33.34105,172.38984 -25.67008,49.5668 -69.33924,84.48235 -108.51045,84.48235 -39.17121,0 -66.42781,-34.91555 -92.09788,-84.48235 -25.67007,-49.5668 -49.75363,-113.78484 -49.75363,-172.38984 0,-117.209991 63.50909,-167.5827243 141.85151,-167.5827243 78.34242,0 141.8515,50.3727333 141.8515,167.5827243 z"
         style="fill:#33b5e6;fill-opacity:1;stroke:none" />
      <path
         sodipodi:nodetypes="sscs"
         inkscape:connector-curvature="0"
         id="rect2988"
         d="m 335.19698,398.4798 c -2.25836,-14.56082 23.33332,76.00865 16.45915,70.56398 -11.33828,-8.98048 -45.26267,-3.36019 -45.26267,-3.36019 0,0 32.68486,-42.17868 28.80352,-67.20379 z"
         style="fill:#33b5e6;fill-opacity:1;stroke:none" />
    </g>
    <path
       style="fill:#fcfcfc;fill-opacity:1;stroke:none;filter:url(#filter4375)"
       d="m 43.895149,109.40819 c -5.952773,-1.51587 -4.179902,-6.80917 -3.52178,-12.862459 2.328486,-21.41703 14.468204,-39.625898 38.48473,-53.95116 7.174793,-4.279584 12.015599,-8.905864 17.968372,-7.389994 5.952769,1.515868 11.383349,9.074677 3.521789,12.862445 -28.467716,13.716014 -38.65751,32.419712 -38.484739,53.951168 0.04861,6.05231 -12.015599,8.90586 -17.968372,7.39 z"
       id="rect2997"
       inkscape:connector-curvature="0"
       sodipodi:nodetypes="sssssss"
       transform="matrix(1,0,0,1.147636,0,-5.1974633)" />
    <path
       style="fill:#000000;fill-rule:evenodd;stroke:none"
       d="m 151.91518,444.20799 -9.99954,0.095 c 0.40084,14.78424 0.32208,29.50305 -1.39625,43.99259 -1.08612,8.96107 -2.63894,17.761 -5.98958,25.75295 -1e-5,10e-6 -1e-5,10e-6 -1e-5,2e-5 -2.07597,4.90835 -4.8026,9.49224 -8.57694,12.83055 -1e-5,10e-6 -1e-5,10e-6 -1e-5,10e-6 -2.79227,2.54904 -6.32974,4.43426 -10.10616,5.95222 -3.4813,1.38055 -7.33249,2.50185 -11.18583,4.19969 0,0 -1e-5,10e-6 -1e-5,10e-6 -1.88388,0.82993 -3.75203,1.82795 -5.518523,3.06407 -1.863302,1.31013 -3.545044,2.87426 -4.979804,4.64806 -1.671716,2.08072 -2.976161,4.37051 -3.979155,6.7318 -10e-7,0 -2e-6,0 -3e-6,0 -1.283816,3.02013 -2.137854,6.13985 -2.737878,9.24324 -1.833967,9.4912 -1.781219,19.08359 -1.328618,28.46835 0,0 0,0 1e-6,10e-6 0.869712,18.58871 0.859219,37.27059 -2.167758,55.59483 -10e-7,10e-6 -2e-6,10e-6 -2e-6,2e-5 -1.65582,9.9681 -4.082692,19.94954 -9.173087,28.65247 -2.488758,4.259 -5.681327,8.27766 -10.019264,10.68027 -1.577402,0.53159 -3.16194,1.06496 -4.753612,1.60011 -1.8e-5,0 -2.7e-5,0 -2.7e-5,0 0,0 9e-6,0 2.7e-5,0 1.600832,-0.47583 3.208798,-0.95345 4.8239,-1.43284 4.452785,-2.26664 7.878019,-6.22904 10.565974,-10.47184 3e-6,0 5e-6,0 8e-6,-10e-6 5.467834,-8.637 8.336876,-18.69957 10.348873,-28.69885 0,-10e-6 10e-7,-10e-6 10e-7,-10e-6 3.718597,-18.3983 4.433553,-37.30324 4.219908,-56.03576 0,-10e-6 0,-10e-6 0,-2e-5 -0.08952,-9.29117 0.174267,-18.56158 2.236145,-27.3435 0.668569,-2.84683 1.521902,-5.60416 2.722204,-8.13774 0.932874,-1.96669 2.057175,-3.80161 3.42347,-5.36088 10e-7,-10e-6 2e-6,-10e-6 4e-6,-10e-6 1.154183,-1.32814 2.505276,-2.49134 3.983436,-3.45261 1.40677,-0.92095 2.97385,-1.67492 4.62338,-2.34083 3.40875,-1.37652 7.20258,-2.32226 11.10625,-3.70789 4.30914,-1.51063 8.572,-3.63658 12.31734,-6.72742 4.87331,-4.12185 8.41573,-9.43846 10.92246,-14.99122 0,0 0,0 0,-10e-6 4.03124,-8.85894 6.12352,-18.31495 7.53023,-27.58109 2.31985,-15.03714 2.97085,-30.20782 3.08845,-45.22378 z"
       id="path3768"
       inkscape:path-effect="#path-effect3770"
       inkscape:original-d="m 146.91541,444.25551 c 1.40181,147.48564 -61.67969,48.29176 -58.87607,144.87527 2.80362,96.58352 -28.03622,96.58352 -28.03622,96.58352 l 0,0"
       inkscape:connector-curvature="0" />
    <path
       inkscape:connector-curvature="0"
       style="font-size:75.9388504px;font-style:normal;font-variant:normal;font-weight:bold;font-stretch:normal;line-height:125%;letter-spacing:0px;word-spacing:0px;fill:#bdfc00;fill-opacity:1;stroke:none;font-family:Liberation Mono;-inkscape-font-specification:Liberation Mono Bold"
       d="m 16.46644,161.69343 c 1.263703,2.21098 1.947578,4.46583 2.364038,6.73606 0.416459,2.27022 0.565329,4.55585 0.66473,6.84055 0.0994,2.2847 0.14916,4.5685 0.275718,6.8469 0.126558,2.2784 0.32974,4.55142 0.646944,6.82608 0.317204,2.27466 0.748252,4.55098 1.244156,6.84717 0.495903,2.29619 1.056484,4.61226 1.549045,6.97732 0.492562,2.36506 0.916923,4.77911 1.059387,7.28184 0.142463,2.50273 0.0028,5.09416 -0.710829,7.82422 2.733386,0.715 5.466234,1.4874 8.201453,2.30305 2.430216,-4.72629 3.547535,-9.15458 4.353215,-13.32376 0.121384,-0.59315 0.257512,-1.26272 0.408291,-2.04336 0.150749,-0.78062 0.303273,-1.64535 0.447105,-2.52965 0.143791,-0.88427 0.27116,-1.75871 0.405464,-2.68333 0.134264,-0.92457 0.269057,-1.83307 0.396074,-2.6977 0.31197,-2.01681 0.647345,-4.09266 1.048919,-6.26403 0.424087,2.15263 0.895668,4.25225 1.371541,6.32531 0.197231,0.88821 0.408631,1.79254 0.616808,2.75547 0.208128,0.96297 0.400801,1.91679 0.59406,2.85573 0.193209,0.93897 0.377012,1.85153 0.536241,2.71617 0.159179,0.86466 0.281711,1.6235 0.37794,2.28003 0.608135,4.60092 0.828949,9.74024 -0.237143,15.85878 2.744845,0.90263 5.494935,1.83133 8.251994,2.77296 1.422264,-4.08692 2.355182,-7.81589 3.03655,-11.26229 0.681368,-3.4464 1.110993,-6.61024 1.453282,-9.57733 0.342289,-2.96709 0.597048,-5.73744 0.858202,-8.40717 0.261153,-2.66973 0.528505,-5.23885 0.828424,-7.81363 0.299919,-2.57479 0.632207,-5.15525 0.958628,-7.85768 0.32642,-2.70244 0.646774,-5.52686 0.861188,-8.5994 0.214415,-3.07254 0.322691,-6.39322 0.166316,-10.09788 -0.156375,-3.70465 -0.577603,-7.79329 -1.477819,-12.41126 -2.8871,0.87006 -5.764169,1.7502 -8.632449,2.62708 1.011434,4.27237 1.476468,8.08278 1.653912,11.56285 0.177444,3.48007 0.06748,6.62982 -0.142541,9.57153 -0.210016,2.94171 -0.519903,5.67539 -0.816389,8.31388 -0.296486,2.63849 -0.579395,5.18179 -0.812182,7.73323 -0.111721,1.14506 -0.200027,2.38113 -0.243679,3.76504 -0.04374,1.38395 -0.05436,2.69449 -0.07042,3.92377 -0.01613,1.22933 -0.01779,2.29583 -0.02501,3.15648 -0.0073,0.8607 -0.0517,1.30194 -0.07455,1.30005 -0.152751,-1.2129 -0.342267,-2.4584 -0.581104,-3.70706 -0.211917,-1.0927 -0.445377,-2.27589 -0.696367,-3.5808 -0.25104,-1.30485 -0.521837,-2.62836 -0.836809,-3.94329 -0.600638,-2.47427 -1.152717,-4.90532 -1.66678,-7.37493 -0.514064,-2.46961 -0.989751,-4.97785 -1.514305,-7.58832 -2.253037,0.13752 -4.51622,0.26735 -6.791342,0.38646 -0.665237,2.55628 -1.394995,4.98685 -2.07751,7.36667 -0.682515,2.37981 -1.317432,4.7089 -1.869644,7.04127 -0.267762,1.2674 -0.49052,2.50978 -0.673247,3.71631 -0.182757,1.20659 -0.345919,2.28483 -0.47449,3.26772 -0.14358,1.12346 -0.236886,2.22447 -0.31548,3.25548 -0.103553,-1.32733 -0.22262,-2.67704 -0.353067,-4.02508 -0.118459,-1.1516 -0.263773,-2.34572 -0.38689,-3.61629 -0.123084,-1.27054 -0.255593,-2.43926 -0.383616,-3.50791 -0.285218,-2.38098 -0.475518,-4.75152 -0.602106,-7.15018 -0.126587,-2.39865 -0.189288,-4.82544 -0.313758,-7.30929 -0.12447,-2.48385 -0.310536,-5.02479 -0.780904,-7.64185 -0.470368,-2.61707 -1.224865,-5.31028 -2.585826,-8.08853 -2.827757,0.74124 -5.654107,1.43612 -8.483368,2.06654 0,0 0,0 0,0 z m 45.813168,-13.0898 c 1.583511,6.48667 2.333469,11.99624 2.739774,16.86831 3.526513,-0.49025 7.047354,-0.97421 10.565236,-1.43923 0.413322,5.16556 0.522054,9.6203 0.568001,13.7309 0.04595,4.11059 0.02911,7.87706 0.03312,11.66189 0.004,3.78483 0.02886,7.58802 -4e-6,11.76786 -0.02886,4.17985 -0.111435,8.73635 -0.480457,14.02359 -3.52198,-0.62009 -7.047279,-1.24897 -10.579004,-1.87102 -0.360872,4.94157 -1.043389,10.52754 -2.52208,17.07219 10.276775,3.52108 20.677128,6.95675 31.207775,9.77855 1.076103,-8.44852 1.631122,-15.50905 1.959405,-21.63588 -3.516689,-0.53596 -7.033169,-1.10674 -10.550956,-1.69932 0.358178,-5.65273 0.458631,-10.48788 0.50249,-14.90068 0.04386,-4.41281 0.03113,-8.40327 0.02596,-12.37074 -0.0052,-3.96748 -0.0028,-7.91196 -0.06562,-12.23691 -0.06285,-4.32494 -0.190948,-9.03035 -0.594082,-14.52379 3.51391,-0.42232 7.026401,-0.81612 10.538402,-1.17275 -0.376534,-5.93867 -0.998633,-12.77395 -2.172732,-20.98514 -10.515688,2.1279 -20.913949,4.91204 -31.175226,7.93217 0,0 0,0 0,0 z m 41.163932,-9.74695 c 1.44333,12.70388 1.92887,22.22197 2.17359,30.19365 0.24471,7.97167 0.24859,14.39692 0.26039,20.89763 0.0118,6.50071 0.0315,13.07689 -0.16023,21.33294 -0.19177,8.25605 -0.59504,18.19199 -1.89742,31.39474 2.97582,0.67347 5.96071,1.28926 8.95368,1.83951 0.97972,-13.3164 1.30402,-23.3981 1.46142,-31.77163 0.15739,-8.37353 0.14789,-15.03889 0.13743,-21.53575 -0.001,-0.79259 -0.0119,-1.69872 -0.0362,-2.70699 -0.0249,-1.00821 -0.0535,-2.08406 -0.10263,-3.2207 -0.0492,-1.13654 -0.10809,-2.28101 -0.17183,-3.50508 -0.0638,-1.22397 -0.13527,-2.42592 -0.21425,-3.61036 -0.16263,-2.79202 -0.35563,-5.8693 -0.6221,-9.3435 1.21663,6.06238 2.30636,11.28508 3.38377,16.35676 1.0774,5.07169 2.13822,9.99295 3.17832,15.48384 2.08019,10.98178 4.05268,24.2294 5.47144,45.74608 4.04589,0.47847 8.10312,0.82293 12.16796,1.02306 0.0764,-14.45007 0.0765,-25.24127 0.0656,-34.14533 -0.0109,-8.90405 -0.0329,-15.92095 -0.0562,-22.82607 -0.0233,-6.90512 -0.0479,-13.69844 -0.11973,-22.15898 -0.0718,-8.46054 -0.19074,-18.58828 -0.45821,-32.16586 -2.99742,-0.002 -5.9946,0.0631 -8.98949,0.19565 0.60205,13.45816 0.83235,23.5092 0.95873,31.90573 0.12639,8.39653 0.14888,15.13855 0.16827,21.97055 0.006,2.03349 0.0632,4.29904 0.16479,6.93788 0.10158,2.63892 0.22583,5.28347 0.33144,7.93021 0.12684,3.06485 0.26246,6.3534 0.41532,9.98709 -1.04023,-7.06502 -2.11135,-12.92216 -3.19295,-18.3786 -1.08159,-5.45644 -2.16865,-10.5128 -3.28425,-15.95902 -1.1156,-5.44622 -2.25483,-11.28296 -3.55865,-18.2732 -1.30382,-6.99024 -2.76746,-15.13466 -4.72232,-25.15931 -3.91182,0.41631 -7.81497,0.94139 -11.70565,1.56506 z m 42.82167,-2.49369 c -0.0853,13.52185 -0.083,23.61559 -0.0683,32.05431 0.0148,8.43872 0.042,15.22242 0.0706,22.1264 0.0286,6.90398 0.0585,13.92824 0.14254,22.8503 0.0841,8.92206 0.22223,19.74193 0.53126,34.23933 3.03313,-0.0209 6.06575,-0.12421 9.0948,-0.30878 -0.6527,-14.00682 -0.92357,-24.56179 -1.07937,-33.2872 -0.15579,-8.72541 -0.1965,-15.62127 -0.23183,-22.3055 -0.004,-0.81545 -0.0177,-1.74692 -0.0439,-2.78258 -0.0267,-1.03559 -0.0563,-2.13994 -0.10445,-3.3063 -0.0483,-1.16626 -0.10465,-2.34036 -0.16289,-3.59608 -0.0583,-1.2556 -0.12163,-2.48867 -0.18915,-3.70436 -0.13572,-2.86484 -0.31223,-6.02397 -0.47561,-9.59717 1.0343,6.29033 2.09593,11.64434 3.1677,16.80508 1.07178,5.16074 2.14939,10.12885 3.26384,15.62896 1.11445,5.5001 2.26151,11.53291 3.5845,18.79426 1.32299,7.26135 2.81776,15.75203 4.80276,26.12751 4.05765,-0.54329 8.10155,-1.2262 12.12558,-2.03547 -1.57165,-13.48582 -2.13884,-23.61189 -2.44285,-31.99081 -0.30401,-8.37892 -0.34483,-15.01069 -0.39226,-21.50593 -0.0474,-6.49524 -0.10147,-12.85395 0.0396,-20.68478 0.14103,-7.83082 0.47714,-17.13375 1.6815,-29.51546 -2.95904,-0.55278 -5.92401,-1.06062 -8.89435,-1.51715 -0.92703,12.78016 -1.18999,22.36871 -1.30036,30.42025 -0.11036,8.05155 -0.0681,14.56609 -0.0252,21.20295 0.0127,1.97541 0.0815,4.17873 0.20699,6.74424 0.12547,2.56559 0.28394,5.13556 0.4415,7.70605 0.18701,2.97621 0.40973,6.16657 0.70794,9.68103 -1.32351,-6.74778 -2.47714,-12.41565 -3.60928,-17.73572 -1.13214,-5.32006 -2.23804,-10.29319 -3.3258,-15.69226 -2.17553,-10.79813 -4.25863,-23.28518 -5.76079,-43.94383 -3.91141,-0.39385 -7.83031,-0.68696 -11.7547,-0.87129 0,0 0,0 0,0 z m 42.6466,5.89403 c -1.46669,11.81854 -1.86334,20.73194 -2.02644,28.26247 -0.16311,7.53053 -0.0927,13.67817 -0.0429,19.96202 0.0498,6.28384 0.079,12.70388 0.41561,20.77601 0.33663,8.07213 0.98073,17.79636 2.8427,30.6854 5.63055,-1.40497 11.21338,-3.03415 16.74039,-4.81944 5.89034,-1.9026 11.71462,-3.9805 17.48119,-6.11308 -1.67357,-6.53449 -2.48055,-12.13874 -2.92752,-17.10064 -5.79626,1.10258 -11.57976,2.20221 -17.3665,3.21739 -2.15326,0.37838 -4.30723,0.74535 -6.46225,1.09776 -0.35286,-4.45813 -0.53546,-8.4118 -0.65007,-12.03993 -0.1146,-3.62814 -0.16122,-6.93073 -0.19627,-10.08746 2.15744,-0.0945 4.31901,-0.19382 6.48557,-0.29694 4.68268,-0.22147 9.39084,-0.4621 14.13459,-0.70664 -0.0129,-3.78959 -0.0411,-7.37265 -0.0888,-11.08126 -4.7487,-0.0383 -9.46075,-0.0879 -14.14551,-0.14753 -2.16751,-0.027 -4.32969,-0.0558 -6.48737,-0.0862 -0.0328,-5.87057 -0.0736,-12.08593 0.36739,-19.89303 2.15637,0.26376 4.31401,0.533 6.47337,0.80535 5.34254,0.67506 10.69847,1.3679 16.07642,2.04122 0.31524,-4.67406 0.94626,-9.93831 2.37495,-16.13351 -5.40364,-1.48065 -10.82766,-2.95266 -16.27438,-4.35155 -5.55143,-1.42582 -11.12633,-2.77558 -16.72417,-3.99039 z m 41.77044,10.74626 c -1.0921,4.15949 -1.70893,7.88536 -2.07628,11.29738 -0.36736,3.41202 -0.48524,6.51018 -0.51382,9.41096 -0.0286,2.90078 0.0321,5.60417 0.0875,8.22332 0.0554,2.61916 0.10556,5.15408 0.12146,7.71463 0.0159,2.56055 -0.002,5.14673 -0.0184,7.86508 -0.016,2.71836 -0.0295,5.56889 0.0616,8.65485 0.0911,3.08597 0.28687,6.40737 0.75515,10.06414 0.46828,3.65678 1.20908,7.64894 2.45588,12.07313 3.23942,-1.21913 6.46284,-2.43714 9.67464,-3.62776 -1.85748,-5.8536 -2.4892,-10.96955 -2.73375,-15.59047 -0.24455,-4.62093 -0.10192,-8.74683 -0.0196,-12.64383 2.01477,-0.11456 4.03878,-0.22364 6.07324,-0.32536 1.57396,3.69036 3.02856,7.49583 4.77085,11.41716 1.74229,3.92134 3.76793,7.96083 6.97481,11.84583 3.59779,-1.16714 7.19344,-2.24253 10.79941,-3.1824 -1.72249,-1.64353 -3.07081,-3.46245 -4.2323,-5.36167 -1.16148,-1.89922 -2.13592,-3.8789 -3.05576,-5.87749 -0.91984,-1.9986 -1.78486,-4.01625 -2.67619,-6.02277 -0.89133,-2.00652 -1.80872,-4.00205 -2.7858,-5.98561 1.47887,-0.53702 2.85419,-1.24959 4.10505,-2.15563 1.25078,-0.90598 2.33623,-1.97896 3.2135,-3.21481 0.8772,-1.23579 1.52008,-2.67619 1.91413,-4.28943 0.39397,-1.61318 0.47275,-3.39887 0.26964,-5.38972 -0.26631,-2.60955 -0.87172,-4.92697 -1.66203,-7.02459 -0.7903,-2.09762 -1.76768,-3.98087 -2.98562,-5.71878 -1.21799,-1.73786 -2.70533,-3.28946 -4.64158,-4.62003 -1.93624,-1.33057 -4.33118,-2.43785 -7.27934,-3.16963 -5.51874,-1.36978 -11.0481,-2.85248 -16.59641,-4.3665 z m 7.62632,15.96472 c 1.90899,0.20022 3.82246,0.39217 5.74104,0.57401 1.41527,0.1342 2.66248,0.39247 3.76588,0.78387 1.10335,0.39151 2.03881,0.93916 2.8022,1.63668 0.76333,0.69763 1.36501,1.5629 1.81422,2.59474 0.44916,1.03195 0.72607,2.28911 0.82028,3.72063 0.17355,2.63859 -0.40362,4.5746 -1.77248,5.9442 -1.36892,1.36966 -3.64427,2.0794 -6.75768,2.10972 -2.0799,0.0203 -4.1487,0.0404 -6.20753,0.06 -0.0544,-2.71356 -0.1697,-5.44216 -0.25338,-8.30523 -0.0837,-2.86306 -0.13572,-5.86058 0.0474,-9.11861 z"
       id="text3782"
       inkscape:path-effect="#path-effect3811"
       inkscape:original-d="m 16.55097,161.85209 7.15625,54.5 8.4375,0 2.25,-10.78125 c 0.11338,-0.51189 0.24747,-1.09421 0.40625,-1.78125 0.15875,-0.68701 0.32988,-1.45519 0.5,-2.25 0.17008,-0.79478 0.32988,-1.5888 0.5,-2.4375 0.17008,-0.84866 0.34122,-1.69172 0.5,-2.5 0.38555,-1.88593 0.77923,-3.86293 1.1875,-5.9375 0.38555,2.04763 0.77066,4.02032 1.15625,5.90625 0.15874,0.80828 0.32987,1.62009 0.5,2.46875 0.17008,0.8487 0.32987,1.67397 0.5,2.46875 0.17008,0.79481 0.34121,1.54952 0.5,2.25 0.15874,0.70051 0.29282,1.30061 0.40625,1.8125 l 2.1875,10.78125 8.4375,0 7.125,-54.5 -8.8125,0 -2.84375,28.09375 c -0.11343,1.05077 -0.21324,2.18471 -0.28125,3.4375 -0.0681,1.25283 -0.11092,2.42233 -0.15625,3.5 -0.0454,1.07771 -0.0711,1.99133 -0.0937,2.71875 -0.0227,0.72746 -0.0711,1.09377 -0.0937,1.09375 -0.13611,-0.99684 -0.2959,-2.04729 -0.5,-3.125 -0.18147,-0.94296 -0.37831,-1.98424 -0.59375,-3.15625 -0.21549,-1.17196 -0.45518,-2.38133 -0.75,-3.59375 l -3.375,-13.6875 -6.65625,0 -3.34375,13.6875 c -0.27218,1.23936 -0.52321,2.45304 -0.75,3.625 -0.22682,1.17201 -0.44357,2.21329 -0.625,3.15625 -0.20414,1.07771 -0.36393,2.12385 -0.5,3.09375 -0.0227,-1.23932 -0.0484,-2.51926 -0.0937,-3.8125 -0.0454,-1.10461 -0.11947,-2.26064 -0.1875,-3.5 -0.068,-1.23932 -0.16786,-2.38673 -0.28125,-3.4375 l -3.0314,-28.09375 -8.78125,0 z m 47.09375,0 0,9.21875 10.75,0 0,36.09375 -10.75,0 0,9.1875 31.1875,0 0,-9.1875 -10.75,0 0,-36.09375 10.75,0 0,-9.21875 -31.1875,0 z m 41.03125,0 0,54.5 8.75,0 0,-26.5 c -1e-5,-0.53882 -0.009,-1.1567 -0.0312,-1.84375 -0.0227,-0.687 -0.0484,-1.41962 -0.0937,-2.1875 -0.0454,-0.76782 -0.0996,-1.53545 -0.15625,-2.34375 -0.0567,-0.80823 -0.11947,-1.58933 -0.1875,-2.34375 -0.1361,-1.77815 -0.28732,-3.65387 -0.46875,-5.59375 l 13.0624,40.8125 11.75,0 0,-54.5 -8.75,0 0,27.15625 c -3e-5,1.34714 0.0542,2.84739 0.15625,4.53125 0.10203,1.68391 0.23032,3.30806 0.34375,4.84375 0.13605,1.7782 0.28728,3.56989 0.46875,5.375 l -13.375,-41.90625 -11.46875,0 z m 41.78125,0 0,54.5 8.75,0 0,-26.5 c -1e-5,-0.53882 -0.009,-1.1567 -0.0312,-1.84375 -0.0227,-0.687 -0.0484,-1.41962 -0.0937,-2.1875 -0.0454,-0.76782 -0.0996,-1.53545 -0.15625,-2.34375 -0.0567,-0.80823 -0.11947,-1.58933 -0.1875,-2.34375 -0.1361,-1.77815 -0.31857,-3.65387 -0.5,-5.59375 l 13.0624,40.8125 11.78125,0 0,-54.5 -8.75,0 0,27.15625 c -3e-5,1.34714 0.0542,2.84739 0.15625,4.53125 0.10203,1.68391 0.23032,3.30806 0.34375,4.84375 0.13605,1.7782 0.28728,3.56989 0.46875,5.375 l -13.375,-41.90625 -11.46875,0 z m 41.84375,0 0,54.5 34.34375,0 0,-9.1875 -24.3125,0 0,-13.78125 20.84375,0 0,-9.21875 -20.84375,0 0,-13.09375 22.90625,0 0,-9.21875 -32.9375,0 z m 41.78125,0 0,54.5 10.03125,0 0,-20.8125 5.90625,0 9.84375,20.8125 11.3125,0 -11.875,-23.46875 c 1.38348,-0.48494 2.65576,-1.1556 3.8125,-2.03125 1.15667,-0.87559 2.16079,-1.93035 3,-3.15625 0.83914,-1.22584 1.49242,-2.66469 1.96875,-4.28125 0.47625,-1.6165 0.71871,-3.41249 0.71875,-5.40625 -4e-5,-5.22674 -1.49764,-9.22491 -4.46875,-12 -2.97118,-2.77499 -7.44987,-4.1562 -13.4375,-4.15625 l -16.8125,0 z m 10.03125,9.25 5.71875,0 c 1.40617,5e-5 2.64997,0.11909 3.75,0.375 1.09998,0.256 2.03277,0.67079 2.78125,1.25 0.74843,0.5793 1.32181,1.33832 1.71875,2.28125 0.39688,0.94302 0.59372,2.12599 0.59375,3.5 -3e-5,2.5326 -0.67045,4.44765 -2.03125,5.78125 -1.36086,1.33367 -3.53745,2.00003 -6.53125,2 l -6,0 0,-15.1875 z" />
  </g>
</svg>
